<svg width="1000" height="1000" viewBox="0 0 1000 1000" fill="none" xmlns="http://www.w3.org/2000/svg">
<g clip-path="url(#clip0_217_4)">
<rect width="1000" height="1000" rx="181" fill="#FFF9E0"/>
<path d="M781.156 348.889C781.156 348.889 857.841 430.194 880.819 492.276C903.796 554.357 903.118 650.757 903.118 650.757" stroke="#F57F28" stroke-width="32.3379" stroke-linecap="round"/>
<path d="M1194.85 430.294C1194.85 430.294 1090.28 469.753 1042.42 515.479C994.548 561.205 952.898 648.146 952.898 648.146" stroke="#F57F28" stroke-width="32.3379" stroke-linecap="round"/>
<path d="M937.934 530.012C1063.99 549.977 1135.11 762.296 1111.53 911.132C1087.96 1059.97 978.619 1088.96 852.568 1069C726.516 1049.03 631.487 987.67 655.06 838.834C678.634 689.998 811.883 510.048 937.934 530.012ZM836.49 845.762L920.84 863.692L925.12 843.554L840.771 825.624L836.49 845.762ZM767.486 738.421L768.948 739.445L816.985 773.071L759.424 784.252L757.672 784.593L752.986 806.636L757.005 805.83L844.202 788.328L845.94 787.98L849.501 771.229L848.054 770.203L775.514 718.748L772.171 716.378L767.486 738.421Z" fill="#F57F28"/>
<path d="M291.529 407.484C252.146 478.721 232.466 555.866 225.533 636.749L225.5 636.778C225.498 656.72 225.013 676.683 225.604 696.608C227.398 757.461 239.815 815.942 266.939 870.739C294.669 926.766 332.954 973.968 387.955 1005.03C468.534 1050.56 553.335 1057.14 640.636 1027C687.665 1010.77 727.786 983.708 758.741 944.326C776.061 922.301 787.013 897.293 788.119 868.763C788.989 846.219 780.769 828.012 762.606 814.114C742.915 799.045 721.449 787.248 698.632 777.749L698.332 777.624C687.581 773.149 687.533 773.129 680.002 782.552C668.152 797.37 655.711 811.565 639.34 821.722C600.319 845.928 559.065 842.598 527.302 812.127C513.615 798.993 504.053 782.928 497.823 765.091C484.96 728.21 482.965 690.513 491.329 652.455C498.426 620.157 511.619 591.014 537.537 568.988C567.024 543.939 600 540.5 635.182 553.65L635.303 553.695C670.484 566.844 722.796 586.396 754.413 567.47C786.066 548.522 793.387 540.582 797.075 515.1C803.033 473.925 789.593 439.429 757.857 412.59C745.33 401.994 730.612 394.57 713.629 397.372C704.674 398.85 696.266 403.567 687.62 406.884C675.397 411.571 663.507 417.647 650.876 420.631C638.417 423.577 627.633 414.193 625.376 401.394C622.016 382.289 633.626 361.367 651.635 354.131C656.917 352.009 662.283 350.062 667.552 347.893C677.73 343.679 681.116 336.42 677.711 326.115C671.097 306.108 673.246 298.088 688.964 284.345C691.495 282.125 694.158 280.053 696.717 277.865C713.235 263.728 730.597 250.43 746.021 235.176C761.92 219.464 758.01 198.383 738.888 186.725C723.812 177.522 706.999 174.693 689.828 173.669C609.898 168.934 535.668 188.88 466.33 227.529C390.221 269.951 333.389 331.782 291.529 407.484Z" fill="#F57F28"/>
</g>
<defs>
<clipPath id="clip0_217_4">
<rect width="1000" height="1000" rx="181" fill="white"/>
</clipPath>
</defs>
</svg>
