<svg width="4493" height="1000" viewBox="0 0 4493 1000" fill="none" xmlns="http://www.w3.org/2000/svg">
<style>
  @keyframes wave {
    0%, 100% { transform: translateY(0); }
    25% { transform: translateY(-35px); }
    50% { transform: translateY(0); }
  }
  .bg { fill: none; }
  .letter-0 { animation: wave 1.8s ease-in-out infinite; animation-delay: 0s; }
  .letter-1 { animation: wave 1.8s ease-in-out infinite; animation-delay: 0.12s; }
  .letter-2 { animation: wave 1.8s ease-in-out infinite; animation-delay: 0.24s; }
  .letter-3 { animation: wave 1.8s ease-in-out infinite; animation-delay: 0.36s; }
  .letter-4 { animation: wave 1.8s ease-in-out infinite; animation-delay: 0.48s; }
  .letter-5 { animation: wave 1.8s ease-in-out infinite; animation-delay: 0.60s; }
  .letter-6 { animation: wave 1.8s ease-in-out infinite; animation-delay: 0.72s; }
  .letter-7 { animation: wave 1.8s ease-in-out infinite; animation-delay: 0.84s; }
  .letter-8 { animation: wave 1.8s ease-in-out infinite; animation-delay: 0.96s; }
</style>

<!-- Background removed for transparency -->

<!-- Icon (with pulse animation) -->
<g class="icon-group" clip-path="url(#clip0_232_9)">
<rect width="1000" height="1000" rx="181" fill="#FFF9E0"/>
<path d="M781.156 348.889C781.156 348.889 857.841 430.194 880.819 492.276C903.796 554.357 903.118 650.757 903.118 650.757" stroke="#F57F28" stroke-width="32.3379" stroke-linecap="round"/>
<path d="M1194.85 430.294C1194.85 430.294 1090.28 469.753 1042.42 515.479C994.548 561.205 952.898 648.146 952.898 648.146" stroke="#F57F28" stroke-width="32.3379" stroke-linecap="round"/>
<path d="M937.934 530.012C1063.99 549.977 1135.11 762.296 1111.53 911.132C1087.96 1059.97 978.619 1088.96 852.568 1069C726.516 1049.03 631.487 987.67 655.06 838.834C678.634 689.998 811.883 510.048 937.934 530.012ZM836.49 845.762L920.84 863.692L925.12 843.554L840.771 825.624L836.49 845.762ZM767.486 738.421L768.948 739.445L816.985 773.071L759.424 784.252L757.672 784.593L752.986 806.636L757.005 805.83L844.202 788.328L845.94 787.98L849.501 771.229L848.054 770.203L775.514 718.748L772.171 716.378L767.486 738.421Z" fill="#F57F28"/>
<path d="M291.529 407.484C252.146 478.721 232.466 555.866 225.533 636.749L225.5 636.778C225.498 656.72 225.013 676.683 225.604 696.608C227.398 757.461 239.815 815.942 266.939 870.739C294.669 926.766 332.954 973.968 387.955 1005.03C468.534 1050.56 553.335 1057.14 640.636 1027C687.665 1010.77 727.786 983.708 758.741 944.326C776.061 922.301 787.013 897.293 788.119 868.763C788.989 846.219 780.769 828.012 762.606 814.114C742.915 799.045 721.449 787.248 698.632 777.749L698.332 777.624C687.581 773.149 687.533 773.129 680.002 782.552C668.152 797.37 655.711 811.565 639.34 821.722C600.319 845.928 559.065 842.598 527.302 812.127C513.615 798.993 504.053 782.928 497.823 765.091C484.96 728.21 482.965 690.513 491.329 652.455C498.426 620.157 511.619 591.014 537.537 568.988C567.024 543.939 600 540.5 635.182 553.65L635.303 553.695C670.484 566.844 722.796 586.396 754.413 567.47C786.066 548.522 793.387 540.582 797.075 515.1C803.033 473.925 789.593 439.429 757.857 412.59C745.33 401.994 730.612 394.57 713.629 397.372C704.674 398.85 696.266 403.567 687.62 406.884C675.397 411.571 663.507 417.647 650.876 420.631C638.417 423.577 627.633 414.193 625.376 401.394C622.016 382.289 633.626 361.367 651.635 354.131C656.917 352.009 662.283 350.062 667.552 347.893C677.73 343.679 681.116 336.42 677.711 326.115C671.097 306.108 673.246 298.088 688.964 284.345C691.495 282.125 694.158 280.053 696.717 277.865C713.235 263.728 730.597 250.43 746.021 235.176C761.92 219.464 758.01 198.383 738.888 186.725C723.812 177.522 706.999 174.693 689.828 173.669C609.898 168.934 535.668 188.88 466.33 227.529C390.221 269.951 333.389 331.782 291.529 407.484Z" fill="#F57F28"/>
</g>

<!-- Letter 1: h -->
<g class="letter-0">
<path d="M1304.5 456.311C1312.81 449.92 1320.23 443.753 1328.14 438.225C1346.44 425.443 1367.32 419.276 1389.48 416.677C1417.89 413.341 1445.08 417.521 1470.53 430.186C1498.74 444.218 1516.89 466.891 1527.8 495.392C1535.47 515.457 1539.29 536.316 1539.37 557.583C1539.47 583.253 1538.72 608.951 1537.44 634.592C1537.01 643.165 1533.7 651.592 1531.87 660.126C1526.91 683.245 1528.86 706.374 1531.11 729.619C1532.77 746.803 1533.17 764.123 1533.57 781.394C1533.79 790.811 1527.43 796.813 1517.95 796.639C1487.63 796.096 1457.31 795.446 1427 794.496C1415.16 794.127 1411.19 789.763 1411.98 778.146C1413.48 756.054 1415.63 734.012 1417.19 711.921C1419.87 674.032 1422.46 636.143 1424.77 598.236C1425.53 585.813 1425.19 573.361 1421.79 561.171C1412.67 528.442 1382.67 512.625 1349.32 523.079C1319.03 532.573 1301.33 554.887 1299.04 589.013C1296.82 622.227 1295.77 655.519 1294.63 688.782C1293.67 716.886 1293.35 745.009 1292.68 773.122C1292.34 787.397 1286.78 792.867 1272.21 792.74C1244.21 792.508 1216.22 792.033 1188.23 791.645C1186.73 791.625 1185.23 791.557 1183.74 791.431C1172.51 790.5 1165.8 784.09 1166 773.132C1166.22 760.709 1167.47 748.296 1168.13 735.874C1172.81 648.081 1178.11 560.318 1181.86 472.487C1184.21 417.443 1184.2 362.302 1185.26 307.201C1185.31 304.611 1185.37 302.032 1185.55 299.452C1186.27 288.824 1190.24 284.101 1201.22 282.724C1214.09 281.104 1227.06 280.018 1240.02 279.223C1256.48 278.205 1272.97 277.642 1289.45 277.031C1292.76 276.905 1296.13 277.167 1299.4 277.7C1305.76 278.738 1310.53 282.249 1311.09 288.6C1311.84 297.086 1311.94 305.678 1311.52 314.192C1309.31 359.878 1306.86 405.544 1304.51 451.22C1304.43 452.8 1304.5 454.391 1304.5 456.282V456.311Z" fill="currentColor"/>
</g>

<!-- Letter 2: a -->
<g class="letter-1">
<path d="M1765.77 753.969C1755.87 768.157 1744.22 778.873 1730.07 786.893C1688.93 810.215 1638.34 810.826 1599.9 783.586C1579.72 769.282 1566.14 750.226 1559.79 726.7C1552.47 699.575 1552.65 672.49 1563.33 646.219C1575.71 615.759 1599.4 596.034 1630.57 585.26C1672.58 570.743 1715.44 568.309 1758.7 580.528C1760.88 581.148 1763.12 581.594 1766.01 582.293C1766.45 567.785 1768.04 553.859 1762.7 540.515C1755.7 523.05 1739.53 513.352 1718.3 513.653C1695.82 513.973 1676.37 521.673 1660.16 536.811C1653.16 543.347 1645.92 549.427 1636.62 552.812C1631.25 554.761 1625.99 554.916 1621.28 551.842C1611.22 545.286 1600.91 538.944 1591.61 531.467C1578.44 520.887 1574.84 505.42 1572.57 489.971C1572.09 486.674 1575.1 482.436 1577.44 479.285C1589.29 463.322 1604.43 450.764 1621.81 440.766C1660.7 418.393 1702.98 411.847 1747.42 415.949C1770.71 418.102 1793.04 423.785 1813.52 435.005C1850.8 455.438 1870.12 487.634 1876.88 527.714C1880.67 550.174 1879.72 572.847 1879.14 595.452C1878.35 625.98 1877.06 656.499 1876.17 687.027C1875.98 693.631 1876.33 700.274 1876.86 706.858C1877.43 713.967 1880.84 719.514 1887.93 722.297C1892.13 723.946 1893.18 726.671 1893.06 730.996C1892.63 746.822 1892.53 762.658 1892.64 778.495C1892.71 788.735 1887.81 795.999 1878.71 800.159C1872.49 803.01 1865.66 805.415 1858.88 806.191C1839.82 808.392 1821.02 807.209 1803 799.635C1784.36 791.8 1773.3 777.893 1767.49 759.507C1767.02 758.013 1766.55 756.52 1765.76 753.969H1765.77ZM1729.64 634.631C1715.15 634.98 1701.37 637.472 1688.6 644.173C1674.29 651.689 1666.76 666.284 1669.2 681.48C1671.48 695.687 1682.93 707.091 1697.65 709.835C1722.07 714.384 1752.11 696.996 1758.55 673.731C1761.37 663.52 1762.12 652.755 1763.82 642.253C1764.19 639.955 1763.51 638.577 1760.85 638.287C1750.44 637.123 1740.05 635.862 1729.65 634.631H1729.64Z" fill="currentColor"/>
</g>

<!-- Letter 3: p -->
<g class="letter-2">
<path d="M2037.83 458.6C2046.28 447.331 2055.94 438.972 2067.12 432.435C2108.13 408.444 2151.16 405.195 2195.59 422.02C2243.88 440.31 2272.74 476.114 2289.5 522.303C2302.29 557.544 2304.84 593.93 2301.33 630.849C2298.25 663.268 2290.12 694.387 2271.89 722.035C2236.78 775.285 2186.87 801.371 2121.2 795.146C2091.79 792.353 2066.29 780.066 2045.96 758.731C2044.74 757.451 2043.98 755.773 2043.01 754.28C2042.31 754.648 2041.61 755.017 2040.91 755.376C2040.91 757.509 2040.88 759.652 2040.91 761.786C2041.53 804.93 2042.16 848.065 2042.79 891.21C2042.83 894.119 2042.85 897.029 2042.82 899.938C2042.66 913.175 2037.3 919.207 2023.55 919.352C1991.06 919.711 1958.56 919.643 1926.08 919.343C1913.97 919.226 1907.43 912.07 1907.97 899.657C1908.66 883.84 1910.04 868.052 1911.32 852.264C1921.82 722.617 1926.46 592.853 1919.6 462.857C1919.28 456.883 1918.97 450.909 1918.93 444.936C1918.87 437.284 1921.75 433.386 1929.57 431.98C1947.42 428.77 1965.31 425.734 1983.27 423.165C1996.1 421.332 2009.05 420.1 2021.99 419.15C2030.17 418.549 2032.37 420.527 2033.66 428.43C2034.94 436.247 2035.73 444.131 2036.77 451.976C2037.01 453.809 2037.37 455.632 2037.86 458.59L2037.83 458.6ZM2037.92 600.961C2039.9 613.199 2040.87 625.689 2044.07 637.618C2049.8 658.972 2061.98 676.263 2083.37 685.65C2112.48 698.422 2149.44 686.086 2166.21 657.556C2183.54 628.065 2185.54 596.49 2175.97 564.294C2170.93 547.362 2160.6 533.552 2144.96 524.039C2109.79 502.636 2068.27 521.964 2051.95 548.235C2041.83 564.527 2039.23 582.312 2037.93 600.961H2037.92Z" fill="currentColor"/>
</g>

<!-- Letter 4: p -->
<g class="letter-3">
<path d="M2432.03 456.563C2438.27 450.803 2443.99 444.703 2450.54 439.602C2477.31 418.781 2508.29 409.665 2542.26 411.285C2595.83 413.845 2636.49 438.312 2665.19 481.913C2686.04 513.585 2696.25 548.535 2698.32 585.813C2700.62 627.299 2694.86 667.544 2675.67 705.093C2652.01 751.38 2615.16 782.868 2562.26 793.574C2515.13 803.117 2472.94 793.06 2438.45 758.799C2437.65 758.004 2437.15 756.927 2436.52 755.986C2435.98 756.19 2435.44 756.394 2434.9 756.607C2434.9 758.566 2434.88 760.525 2434.9 762.484C2435.5 808.538 2436.11 854.592 2436.7 900.646C2436.73 902.74 2436.77 904.854 2436.58 906.939C2435.68 917.006 2429.71 922.95 2419.32 923.639C2413.52 924.017 2407.66 923.881 2401.84 923.716C2376.69 923.018 2351.54 922.242 2326.39 921.447C2322.73 921.331 2319.07 921.049 2315.42 920.7C2305.15 919.701 2299.57 914.213 2299.86 904.098C2300.21 891.831 2301.37 879.592 2302.23 867.334C2305.56 819.448 2309.29 771.58 2312.01 723.664C2312.75 710.553 2315.82 698.373 2319.7 685.97C2331.38 648.624 2333.11 610.328 2329.39 571.703C2327.11 548.099 2322.23 525.077 2311.48 503.529C2310.87 502.297 2310.84 500.716 2310.81 499.291C2310.43 481.36 2310.08 463.419 2309.77 445.488C2309.59 434.86 2311.5 432.106 2322.17 430.341C2344.01 426.733 2365.9 423.368 2387.83 420.313C2397.87 418.917 2408.04 418.325 2418.17 417.676C2424.24 417.288 2426.76 419.411 2427.64 425.259C2429.09 434.85 2430.28 444.48 2431.59 454.09C2431.71 454.982 2431.91 455.865 2432.04 456.563H2432.03ZM2433.72 594.473C2433.81 621.287 2437.04 641.632 2448.49 659.844C2458.43 675.642 2472.17 687.124 2491.78 689.645C2521.24 693.447 2545.03 682.488 2559.82 658.37C2580.25 625.049 2582.69 588.955 2566.28 553.306C2555.47 529.838 2535.71 515.486 2508.44 515.069C2481.88 514.661 2461.06 526.56 2446.68 548.302C2436.22 564.11 2433.44 581.876 2433.71 594.463L2433.72 594.473Z" fill="currentColor"/>
</g>

<!-- Letter 5: y -->
<g class="letter-4">
<path d="M2841.22 796.213C2822.72 797.9 2814.07 786.127 2805.87 773.753C2804.43 771.581 2802.92 769.418 2801.77 767.1C2789.35 742.255 2776.39 717.633 2764.78 692.438C2752.55 665.906 2741.55 638.83 2730.19 611.919C2728.98 609.049 2728.46 605.703 2728.49 602.58C2728.86 566.622 2721.35 532.312 2706.04 499.582C2697.41 481.137 2687.12 463.614 2674.89 447.176C2673.92 445.867 2672.99 444.519 2672.14 443.132C2668.73 437.585 2670.11 433.803 2676.76 432.542C2686.07 430.778 2695.48 429.391 2704.9 428.382C2727.76 425.938 2750.65 423.805 2773.52 421.574C2775.67 421.361 2777.84 421.293 2780.01 421.245C2791.67 421.002 2795.12 423.165 2798.78 433.803C2812.85 474.708 2826.6 515.729 2840.9 556.556C2853.22 591.729 2866.12 626.698 2878.79 661.755C2879.32 663.22 2880.16 664.577 2881.41 667.099C2882.75 664.238 2883.87 662.492 2884.4 660.601C2893.41 628.502 2903.38 596.616 2911.04 564.217C2921.24 521.082 2929.62 477.549 2938.78 434.191C2941.02 423.601 2944.65 420.197 2955.68 420.256C2984.84 420.411 3013.99 420.905 3043.15 421.274C3043.65 421.274 3044.15 421.332 3044.65 421.371C3060.4 422.564 3064.56 427.878 3061.21 442.997C3055.86 467.153 3050.19 491.252 3044.94 515.428C3033.77 566.787 3023.91 618.446 3011.4 669.504C2998.85 720.707 2984.27 771.464 2969.53 822.125C2960.57 852.934 2948.82 882.88 2931.78 910.567C2912.49 941.9 2887.57 967.734 2853.12 983.493C2810.3 1003.08 2766.29 1004.88 2722.06 988.448C2683.22 974.028 2666.63 942.2 2675.23 900.889C2679.63 879.748 2690.16 861.652 2704.49 845.428C2707.44 842.092 2710.5 841.723 2714.67 843.459C2725.98 848.153 2737.21 853.235 2748.91 856.794C2781.63 866.734 2808.5 856.861 2826.53 828.35C2831.8 820.011 2835.48 810.73 2839.78 801.818C2840.51 800.305 2840.65 798.53 2841.24 796.193L2841.22 796.213Z" fill="currentColor"/>
</g>

<!-- Letter 6: c/o -->
<g class="letter-5">
<path d="M3079.02 634.702C3080.75 584.129 3090.79 535.466 3113.68 489.839C3138.01 441.351 3172.42 401.009 3219.86 372.12C3263.08 345.8 3310.07 330.963 3361.55 331.303C3372.61 331.38 3383.5 332.592 3393.49 337.829C3406.16 344.462 3409.38 357.457 3399.7 367.756C3390.31 377.754 3379.61 386.598 3369.48 395.937C3367.91 397.382 3366.27 398.759 3364.72 400.223C3355.09 409.291 3353.98 414.353 3358.9 426.591C3361.43 432.895 3359.5 437.524 3353.11 440.478C3349.8 442.001 3346.42 443.388 3343.1 444.881C3331.78 449.972 3325.03 463.374 3327.83 475.157C3329.71 483.051 3336.95 488.54 3344.85 486.299C3352.86 484.03 3360.29 479.86 3367.98 476.544C3373.42 474.197 3378.66 470.987 3384.36 469.775C3395.17 467.476 3404.87 471.617 3413.27 477.804C3434.55 493.476 3444.34 514.51 3441.9 540.335C3440.39 556.316 3430.93 567.468 3416.27 574.325C3401.58 581.191 3386.65 587.562 3371.86 594.234C3368.42 595.785 3366.35 594.612 3364.4 591.79C3357.92 582.393 3350.21 574.257 3339.25 569.612C3318.76 560.923 3295.16 565.791 3277.07 582.345C3261.17 596.901 3253.68 615.472 3250.21 635.808C3246.12 659.77 3248.67 683.171 3258.17 705.708C3262.77 716.608 3269.45 726.296 3278.68 734.025C3300.1 751.956 3326.7 752.683 3350.94 736.343C3361.11 729.486 3368.62 720.245 3375.73 710.634C3380.29 704.467 3380.28 704.534 3387.53 707.036C3402.5 712.205 3416.68 718.848 3429.83 727.586C3441.96 735.644 3447.85 746.709 3448.05 760.771C3448.3 778.566 3442.11 794.49 3431.73 808.764C3413.18 834.289 3388.33 852.442 3358.68 864.08C3303.64 885.686 3248.97 884.357 3195.7 858.649C3159.34 841.106 3133.17 812.973 3113.48 779.002C3094.22 745.778 3084.28 709.781 3081.08 671.96C3080.03 659.576 3079.67 647.134 3079 634.721L3079.02 634.702Z" fill="currentColor"/>
</g>

<!-- Letter 7: l/i -->
<g class="letter-6">
<path d="M3623.56 839.612C3623.56 845.916 3623.57 852.219 3623.56 858.523C3623.52 874.446 3614.58 884.629 3600.28 890.428C3541.56 914.245 3474.89 876.9 3466.6 815.785C3465.52 807.795 3466.18 800.007 3469.3 792.443C3477.86 771.71 3477.3 751.209 3468.01 730.737C3466.49 727.382 3466.13 723.173 3466.42 719.449C3472.39 643.711 3478.66 568.002 3484.6 492.264C3488.05 448.275 3491.02 404.248 3494.21 360.24C3494.35 358.31 3494.48 356.371 3494.74 354.451C3496.22 343.434 3500.34 339.051 3511.76 337.48C3537.85 333.882 3564.06 331.564 3590.46 332.156C3594.28 332.243 3598.12 332.612 3601.89 333.223C3613.43 335.094 3619.95 341.504 3619.98 352.889C3620.01 364.653 3618.88 376.445 3617.76 388.179C3611.97 448.518 3606.17 508.856 3600.07 569.156C3596.52 604.213 3591.67 639.153 3588.76 674.249C3586.39 702.886 3585.87 731.668 3584.93 760.402C3584.76 765.61 3585.92 771.031 3587.48 776.064C3589.56 782.823 3594.63 786.654 3602.16 787.333C3607.03 787.769 3612.82 786.945 3615.88 791.629C3618.37 795.44 3620.56 799.93 3621.11 804.333C3622.58 816.028 3623.09 827.83 3623.98 839.593C3623.84 839.593 3623.71 839.612 3623.57 839.622L3623.56 839.612Z" fill="currentColor"/>
</g>

<!-- Letter 8: a -->
<g class="letter-7">
<path d="M3861.21 834.89C3851.31 849.077 3839.66 859.793 3825.51 867.813C3784.37 891.136 3733.78 891.747 3695.34 864.506C3675.16 850.202 3661.58 831.146 3655.23 807.62C3647.91 780.496 3648.09 753.41 3658.77 727.14C3671.15 696.679 3694.84 676.954 3726.01 666.18C3768.02 651.663 3810.88 649.229 3854.14 661.448C3856.32 662.069 3858.56 662.515 3861.45 663.213C3861.89 648.705 3863.48 634.78 3858.14 621.436C3851.14 603.97 3834.97 594.273 3813.74 594.573C3791.26 594.893 3771.81 602.593 3755.6 617.731C3748.6 624.267 3741.36 630.348 3732.06 633.732C3726.69 635.681 3721.43 635.837 3716.72 632.762C3706.66 626.207 3696.35 619.865 3687.05 612.388C3673.88 601.808 3670.28 586.34 3668.01 570.892C3667.53 567.595 3670.54 563.357 3672.88 560.205C3684.73 544.243 3699.87 531.684 3717.25 521.686C3756.14 499.314 3798.42 492.768 3842.86 496.87C3866.15 499.023 3888.48 504.706 3908.96 515.926C3946.24 536.359 3965.56 568.555 3972.32 608.635C3976.11 631.094 3975.16 653.767 3974.58 676.373C3973.79 706.901 3972.5 737.419 3971.61 767.947C3971.42 774.551 3971.77 781.194 3972.3 787.779C3972.87 794.887 3976.28 800.434 3983.37 803.217C3987.57 804.866 3988.62 807.591 3988.5 811.916C3988.07 827.743 3987.97 843.579 3988.08 859.415C3988.15 869.656 3983.25 876.919 3974.15 881.079C3967.93 883.931 3961.1 886.336 3954.32 887.111C3935.26 889.313 3916.46 888.13 3898.44 880.556C3879.8 872.72 3868.74 858.814 3862.93 840.427C3862.46 838.934 3861.99 837.44 3861.2 834.89H3861.21ZM3825.08 715.551C3810.59 715.9 3796.81 718.392 3784.04 725.093C3769.73 732.609 3762.2 747.204 3764.64 762.4C3766.92 776.607 3778.37 788.011 3793.09 790.756C3817.51 795.304 3847.55 777.916 3853.99 754.652C3856.81 744.44 3857.56 733.676 3859.26 723.173C3859.63 720.875 3858.95 719.498 3856.29 719.207C3845.88 718.043 3835.49 716.783 3825.09 715.551H3825.08Z" fill="currentColor"/>
</g>

<!-- Letter 9: last glyph -->
<g class="letter-8">
<path d="M4123.82 755.098C4124.56 752.906 4125.61 750.763 4126 748.513C4131.1 719.227 4136.17 689.93 4141.11 660.614C4143.1 648.822 4144.35 636.894 4146.66 625.169C4149.99 608.237 4157.65 601.847 4175.32 600.033C4197.72 597.735 4210.28 603.776 4219.17 623.986C4230.2 649.074 4239.69 674.792 4249.97 700.2C4255.44 713.718 4261.11 727.159 4266.82 740.59C4267.72 742.714 4269.35 744.537 4271.42 747.699C4273.44 743.471 4275.11 740.581 4276.25 737.507C4283.53 717.733 4281.59 697.727 4277.56 677.711C4273.22 656.163 4262.35 637.621 4249.73 619.719C4238.85 604.281 4227.78 588.774 4218.93 572.23C4207.68 551.186 4203.54 528.203 4207.28 504.473C4208.21 498.548 4210.22 492.409 4213.3 487.25C4218.89 477.872 4231.11 474.808 4240.84 480.045C4244.05 481.771 4246.3 485.495 4248.45 488.646C4250.17 491.168 4250.98 494.252 4252.36 497.006C4255.93 504.124 4261.29 509.079 4269.82 509.748C4273.55 510.039 4275.38 511.659 4276.08 515.305C4278.35 527.146 4285.68 535.68 4295.7 542.255C4302.84 546.939 4310.65 543.962 4311.69 535.641C4312.27 531.006 4311.61 525.895 4310.12 521.424C4307.12 512.406 4304.12 503.814 4308.11 494.164C4310.8 487.648 4307.67 482.198 4301.82 478.318C4298.52 476.127 4295.03 474.197 4291.85 471.87C4287.1 468.398 4286.23 464.916 4288.23 459.525C4288.96 457.556 4289.71 455.578 4290.2 453.541C4292.18 445.366 4289.78 441.002 4281.73 437.986C4278.93 436.939 4276.07 436.047 4273.29 434.96C4267 432.517 4264.72 428.104 4266.53 421.791C4267.47 418.523 4268.54 415.294 4269.65 412.074C4272.05 405.15 4270.59 399.089 4265.69 393.61C4257.4 384.339 4249.23 374.952 4240.95 365.671C4234.41 358.34 4229.77 350.407 4234.18 340.535C4238.58 330.663 4247.53 326.367 4257.83 324.844C4273.83 322.478 4289.42 325.397 4304.67 329.78C4363.62 346.703 4408.89 381.333 4442.01 431.081C4475.23 480.995 4490.52 536.262 4492.29 595.301C4494.19 658.849 4481.35 719.333 4451.25 776.006C4434.16 808.183 4411.54 836.131 4380.9 857.282C4357.3 873.574 4331.34 883.853 4301.76 882.815C4272.81 881.807 4248.64 870.771 4229.54 849.446C4218.2 836.791 4208.92 822.884 4201.47 807.795C4200.71 806.253 4199.82 804.759 4198.29 801.957C4197.13 805.448 4196.5 807.678 4195.66 809.841C4190.6 822.797 4186.62 836.296 4180.19 848.593C4156.97 893.027 4110.77 892.086 4082.17 877.647C4063.18 868.056 4050.15 852.714 4038.65 835.84C4037.36 833.959 4036.26 831.951 4035 830.051C4028.94 820.945 4024.71 811.519 4025.51 800.143C4026.14 791.231 4023.89 782.494 4019.71 774.357C4015.7 766.541 4009.54 760.81 4001.55 756.97C3996.95 754.759 3994.47 751.384 3993.68 746.535C3987.76 710.043 3986.21 673.551 3993.95 637.107C3996.98 622.832 4002.27 609.711 4015.96 601.691C4026.08 595.766 4037.19 593.138 4048.96 594.001C4061.23 594.893 4069.44 601.924 4073.64 612.562C4079.76 628.079 4085.12 643.886 4090.38 659.693C4099.78 687.961 4108.82 716.337 4118.11 744.644C4119.29 748.232 4121 751.646 4122.46 755.146C4122.9 755.146 4123.35 755.137 4123.79 755.127L4123.82 755.098Z" fill="currentColor"/>
</g>

<defs>
<clipPath id="clip0_232_9">
<rect width="1000" height="1000" rx="181" fill="currentColor"/>
</clipPath>
</defs>
</svg>
