<svg preserveAspectRatio="xMinYMid meet" width="100%" height="100%" overflow="visible" style="display: block;" viewBox="0 0 3326.47 722.595" fill="none" xmlns="http://www.w3.org/2000/svg">
<g id="Group 5">
<path id="Vector" d="M1675.22 519.212C1656.72 520.9 1648.07 509.127 1639.87 496.753C1638.43 494.58 1636.92 492.418 1635.77 490.1C1623.35 465.255 1610.39 440.633 1598.78 415.438C1586.55 388.906 1575.55 361.83 1564.19 334.919C1562.98 332.048 1562.46 328.703 1562.49 325.58C1562.86 289.621 1555.35 255.311 1540.04 222.582C1531.41 204.137 1521.12 186.613 1508.89 170.176C1507.92 168.867 1506.99 167.519 1506.14 166.132C1502.73 160.585 1504.11 156.803 1510.76 155.542C1520.07 153.777 1529.48 152.391 1538.9 151.382C1561.76 148.938 1584.65 146.805 1607.52 144.574C1609.67 144.361 1611.84 144.293 1614.01 144.245C1625.67 144.002 1629.12 146.165 1632.78 156.803C1646.85 197.707 1660.6 238.728 1674.9 279.555C1687.22 314.728 1700.12 349.698 1712.79 384.755C1713.32 386.219 1714.16 387.577 1715.41 390.098C1716.75 387.238 1717.87 385.492 1718.4 383.601C1727.41 351.502 1737.38 319.616 1745.04 287.216C1755.24 244.081 1763.62 200.549 1772.78 157.191C1775.02 146.601 1778.65 143.197 1789.68 143.255C1818.84 143.411 1847.99 143.905 1877.15 144.274C1877.65 144.274 1878.15 144.332 1878.65 144.371C1894.4 145.563 1898.56 150.878 1895.21 165.996C1889.86 190.153 1884.19 214.252 1878.94 238.428C1867.77 289.786 1857.91 341.445 1845.4 392.503C1832.85 443.707 1818.27 494.464 1803.53 545.124C1794.57 575.934 1782.82 605.88 1765.78 633.567C1746.49 664.9 1721.57 690.734 1687.12 706.493C1644.3 726.082 1600.29 727.876 1556.06 711.448C1517.22 697.028 1500.63 665.2 1509.23 623.888C1513.63 602.748 1524.16 584.652 1538.49 568.428C1541.44 565.092 1544.5 564.723 1548.67 566.459C1559.98 571.153 1571.21 576.234 1582.91 579.793C1615.63 589.733 1642.5 579.861 1660.53 551.35C1665.8 543.01 1669.48 533.73 1673.78 524.818C1674.51 523.305 1674.65 521.53 1675.24 519.193L1675.22 519.212Z" fill="var(--fill-0, #F57F28)"/>
<path id="Vector_2" d="M1266.03 179.563C1272.27 173.803 1277.99 167.703 1284.54 162.602C1311.31 141.781 1342.29 132.665 1376.26 134.285C1429.83 136.845 1470.49 161.312 1499.19 204.913C1520.04 236.585 1530.25 271.535 1532.32 308.813C1534.62 350.299 1528.86 390.544 1509.67 428.094C1486.01 474.38 1449.16 505.868 1396.26 516.575C1349.13 526.117 1306.94 516.061 1272.45 481.799C1271.65 481.004 1271.15 479.927 1270.52 478.987C1269.98 479.19 1269.44 479.394 1268.9 479.607C1268.9 481.566 1268.88 483.525 1268.9 485.484C1269.5 531.538 1270.11 577.592 1270.7 623.646C1270.73 625.74 1270.77 627.855 1270.58 629.94C1269.68 640.006 1263.71 645.95 1253.32 646.639C1247.52 647.017 1241.66 646.881 1235.84 646.716C1210.69 646.018 1185.54 645.242 1160.39 644.447C1156.73 644.331 1153.07 644.05 1149.42 643.7C1139.15 642.702 1133.57 637.213 1133.86 627.098C1134.21 614.831 1135.37 602.592 1136.23 590.335C1139.56 542.448 1143.29 494.58 1146.01 446.664C1146.75 433.553 1149.82 421.373 1153.7 408.97C1165.38 371.624 1167.11 333.328 1163.39 294.703C1161.11 271.099 1156.23 248.077 1145.48 226.529C1144.87 225.297 1144.84 223.716 1144.81 222.291C1144.43 204.36 1144.08 186.419 1143.77 168.488C1143.59 157.86 1145.5 155.106 1156.17 153.341C1178.01 149.733 1199.9 146.368 1221.83 143.313C1231.87 141.917 1242.04 141.325 1252.17 140.676C1258.24 140.288 1260.76 142.412 1261.64 148.259C1263.09 157.85 1264.28 167.48 1265.59 177.09C1265.71 177.982 1265.91 178.865 1266.04 179.563H1266.03ZM1267.72 317.473C1267.81 344.287 1271.04 364.632 1282.49 382.844C1292.43 398.642 1306.17 410.124 1325.78 412.645C1355.24 416.447 1379.03 405.488 1393.82 381.37C1414.25 348.049 1416.69 311.955 1400.28 276.307C1389.47 252.838 1369.71 238.486 1342.44 238.069C1315.88 237.662 1295.06 249.56 1280.68 271.303C1270.22 287.11 1267.44 304.876 1267.71 317.463L1267.72 317.473Z" fill="var(--fill-0, #F57F28)"/>
<path id="Vector_3" d="M871.834 181.6C880.284 170.331 889.944 161.972 901.124 155.436C942.134 131.444 985.164 128.195 1029.59 145.02C1077.88 163.31 1106.74 199.114 1123.5 245.303C1136.29 280.544 1138.84 316.93 1135.33 353.849C1132.25 386.268 1124.12 417.387 1105.89 445.035C1070.78 498.285 1020.87 524.371 955.204 518.146C925.794 515.353 900.294 503.066 879.964 481.731C878.744 480.451 877.984 478.773 877.014 477.28C876.314 477.648 875.614 478.017 874.914 478.376C874.914 480.509 874.884 482.652 874.914 484.786C875.534 527.93 876.164 571.065 876.794 614.21C876.834 617.119 876.854 620.029 876.824 622.938C876.664 636.175 871.304 642.207 857.554 642.353C825.064 642.711 792.564 642.643 760.084 642.343C747.974 642.227 741.434 635.07 741.974 622.657C742.664 606.84 744.044 591.052 745.324 575.264C755.824 445.617 760.464 315.853 753.604 185.857C753.284 179.883 752.974 173.909 752.934 167.936C752.874 160.284 755.754 156.386 763.574 154.98C781.424 151.77 799.314 148.734 817.274 146.165C830.104 144.332 843.054 143.1 855.994 142.15C864.174 141.549 866.374 143.527 867.664 151.43C868.944 159.247 869.734 167.131 870.774 174.976C871.014 176.809 871.374 178.632 871.864 181.59L871.834 181.6ZM871.924 323.961C873.904 336.199 874.874 348.69 878.074 360.618C883.804 381.972 895.984 399.263 917.374 408.65C946.484 421.422 983.444 409.086 1000.21 380.556C1017.54 351.065 1019.54 319.49 1009.97 287.294C1004.93 270.362 994.604 256.552 978.964 247.039C943.794 225.637 902.274 244.964 885.954 271.235C875.834 287.527 873.234 305.312 871.934 323.961H871.924Z" fill="var(--fill-0, #F57F28)"/>
<path id="Vector_4" d="M138.504 179.311C146.814 172.92 154.234 166.753 162.144 161.225C180.444 148.444 201.324 142.276 223.484 139.677C251.894 136.341 279.084 140.521 304.534 153.186C332.744 167.218 350.894 189.891 361.804 218.392C369.474 238.457 373.294 259.316 373.374 280.583C373.474 306.253 372.724 331.951 371.444 357.592C371.014 366.165 367.704 374.592 365.874 383.126C360.914 406.245 362.864 429.374 365.114 452.619C366.774 469.803 367.174 487.123 367.574 504.394C367.794 513.811 361.434 519.813 351.954 519.639C321.634 519.096 291.314 518.446 261.004 517.496C249.164 517.127 245.194 512.763 245.984 501.146C247.484 479.054 249.634 457.012 251.194 434.921C253.874 397.032 256.464 359.143 258.774 321.236C259.534 308.813 259.194 296.361 255.794 284.171C246.674 251.442 216.674 235.625 183.324 246.079C153.034 255.573 135.334 277.887 133.044 312.013C130.824 345.227 129.774 378.519 128.634 411.782C127.674 439.886 127.354 468.009 126.684 496.122C126.344 510.397 120.784 515.867 106.214 515.74C78.2143 515.508 50.2243 515.033 22.2343 514.645C20.7343 514.625 19.2343 514.557 17.7443 514.431C6.51435 513.5 -0.195651 507.09 0.00434881 496.132C0.224349 483.709 1.47435 471.296 2.13435 458.874C6.81435 371.081 12.1143 283.318 15.8643 195.487C18.2143 140.443 18.2043 85.3024 19.2643 30.2005C19.3143 27.6113 19.3743 25.0317 19.5543 22.4522C20.2743 11.8236 24.2444 7.10084 35.2243 5.72378C48.0943 4.10427 61.0643 3.01814 74.0243 2.22294C90.4843 1.20469 106.974 0.642228 123.454 0.0312784C126.764 -0.0947905 130.134 0.167045 133.404 0.700413C139.764 1.73806 144.534 5.24859 145.094 11.6005C145.844 20.0859 145.944 28.678 145.524 37.1925C143.314 82.878 140.864 128.544 138.514 174.22C138.434 175.8 138.504 177.391 138.504 179.282V179.311Z" fill="var(--fill-0, #F57F28)"/>
<path id="Vector_5" d="M599.774 476.97C589.874 491.157 578.224 501.873 564.074 509.893C522.934 533.216 472.344 533.827 433.904 506.586C413.724 492.282 400.144 473.226 393.794 449.7C386.474 422.576 386.654 395.49 397.334 369.219C409.714 338.759 433.404 319.034 464.574 308.26C506.584 293.743 549.444 291.309 592.704 303.528C594.884 304.148 597.124 304.594 600.014 305.293C600.454 290.785 602.044 276.859 596.704 263.515C589.704 246.05 573.534 236.352 552.304 236.653C529.824 236.973 510.374 244.673 494.164 259.811C487.164 266.347 479.924 272.428 470.624 275.812C465.254 277.761 459.994 277.916 455.284 274.842C445.224 268.287 434.914 261.944 425.614 254.468C412.444 243.887 408.844 228.42 406.574 212.971C406.094 209.674 409.104 205.436 411.444 202.285C423.294 186.322 438.434 173.764 455.814 163.766C494.704 141.393 536.984 134.848 581.424 138.95C604.714 141.102 627.044 146.785 647.524 158.005C684.804 178.438 704.124 210.634 710.884 250.715C714.674 273.174 713.724 295.847 713.144 318.452C712.354 348.98 711.064 379.499 710.174 410.027C709.984 416.631 710.334 423.274 710.864 429.859C711.434 436.967 714.844 442.514 721.934 445.297C726.134 446.946 727.184 449.671 727.064 453.996C726.634 469.822 726.534 485.659 726.644 501.495C726.714 511.735 721.814 518.999 712.714 523.159C706.494 526.01 699.664 528.415 692.884 529.191C673.824 531.392 655.024 530.209 637.004 522.636C618.364 514.8 607.304 500.893 601.494 482.507C601.024 481.013 600.554 479.52 599.764 476.97H599.774ZM563.644 357.631C549.154 357.98 535.374 360.472 522.604 367.173C508.294 374.689 500.764 389.284 503.204 404.48C505.484 418.687 516.934 430.091 531.654 432.836C556.074 437.384 586.114 419.996 592.554 396.731C595.374 386.52 596.124 375.756 597.824 365.253C598.194 362.955 597.514 361.578 594.854 361.287C584.444 360.123 574.054 358.862 563.654 357.631H563.644Z" fill="var(--fill-0, #F57F28)"/>
<g id="Group 1">
<path id="Vector_6" d="M2957.82 478.098C2958.56 475.906 2959.61 473.763 2960 471.513C2965.1 442.226 2970.17 412.93 2975.11 383.614C2977.1 371.822 2978.35 359.894 2980.66 348.169C2983.99 331.237 2991.65 324.847 3009.32 323.033C3031.72 320.735 3044.28 326.776 3053.17 346.986C3064.2 372.074 3073.69 397.792 3083.97 423.2C3089.44 436.718 3095.11 450.159 3100.82 463.59C3101.72 465.714 3103.35 467.537 3105.42 470.699C3107.44 466.471 3109.11 463.581 3110.25 460.506C3117.53 440.733 3115.59 420.727 3111.56 400.711C3107.22 379.163 3096.35 360.621 3083.73 342.719C3072.85 327.281 3061.78 311.774 3052.93 295.23C3041.68 274.186 3037.54 251.203 3041.28 227.473C3042.21 221.548 3044.22 215.409 3047.3 210.25C3052.89 200.872 3065.11 197.808 3074.84 203.045C3078.05 204.771 3080.3 208.495 3082.45 211.646C3084.17 214.168 3084.98 217.252 3086.36 220.006C3089.93 227.124 3095.29 232.079 3103.82 232.748C3107.55 233.039 3109.38 234.659 3110.08 238.305C3112.35 250.146 3119.68 258.68 3129.7 265.255C3136.84 269.939 3144.65 266.962 3145.69 258.641C3146.27 254.006 3145.61 248.895 3144.12 244.424C3141.12 235.406 3138.12 226.813 3142.11 217.164C3144.8 210.648 3141.67 205.197 3135.82 201.318C3132.52 199.127 3129.03 197.197 3125.85 194.87C3121.1 191.398 3120.23 187.916 3122.23 182.524C3122.96 180.556 3123.71 178.578 3124.2 176.541C3126.18 168.366 3123.78 164.002 3115.73 160.986C3112.93 159.939 3110.07 159.047 3107.29 157.96C3101 155.517 3098.72 151.104 3100.53 144.791C3101.47 141.523 3102.54 138.294 3103.65 135.074C3106.05 128.15 3104.59 122.089 3099.69 116.61C3091.4 107.339 3083.23 97.9516 3074.95 88.671C3068.41 81.3396 3063.77 73.407 3068.18 63.5348C3072.58 53.6627 3081.53 49.3666 3091.83 47.8441C3107.83 45.4779 3123.42 48.3969 3138.67 52.7802C3197.62 69.7025 3242.89 104.333 3276.01 154.081C3309.23 203.995 3324.52 259.262 3326.29 318.301C3328.19 381.849 3315.35 442.333 3285.25 499.006C3268.16 531.183 3245.54 559.131 3214.9 580.282C3191.3 596.574 3165.34 606.853 3135.76 605.815C3106.81 604.807 3082.64 593.771 3063.54 572.446C3052.2 559.791 3042.92 545.884 3035.47 530.795C3034.71 529.253 3033.82 527.759 3032.29 524.957C3031.13 528.448 3030.5 530.678 3029.66 532.841C3024.6 545.797 3020.62 559.296 3014.19 571.593C2990.97 616.027 2944.77 615.086 2916.17 600.647C2897.18 591.056 2884.15 575.714 2872.65 558.84C2871.36 556.959 2870.26 554.951 2869 553.051C2862.94 543.945 2858.71 534.519 2859.51 523.143C2860.14 514.231 2857.89 505.494 2853.71 497.357C2849.7 489.541 2843.54 483.81 2835.55 479.97C2830.95 477.759 2828.47 474.384 2827.68 469.535C2821.76 433.043 2820.21 396.551 2827.95 360.107C2830.98 345.832 2836.27 332.711 2849.96 324.691C2860.08 318.766 2871.19 316.138 2882.96 317.001C2895.23 317.893 2903.44 324.924 2907.64 335.562C2913.76 351.079 2919.12 366.886 2924.38 382.693C2933.78 410.961 2942.82 439.337 2952.11 467.644C2953.29 471.232 2955 474.646 2956.46 478.146C2956.9 478.146 2957.35 478.137 2957.79 478.127L2957.82 478.098Z" fill="var(--fill-0, #F57F28)"/>
<path id="Vector_7" d="M1913.02 357.702C1914.75 307.129 1924.79 258.466 1947.68 212.839C1972.01 164.351 2006.42 124.009 2053.86 95.1198C2097.08 68.8005 2144.07 53.9631 2195.55 54.3026C2206.61 54.3801 2217.5 55.5923 2227.49 60.8291C2240.16 67.4622 2243.38 80.457 2233.7 90.7559C2224.31 100.754 2213.61 109.598 2203.48 118.937C2201.91 120.382 2200.27 121.759 2198.72 123.223C2189.09 132.291 2187.98 137.353 2192.9 149.591C2195.43 155.895 2193.5 160.524 2187.11 163.478C2183.8 165.001 2180.42 166.388 2177.1 167.881C2165.78 172.972 2159.03 186.374 2161.83 198.157C2163.71 206.051 2170.95 211.54 2178.85 209.299C2186.86 207.03 2194.29 202.86 2201.98 199.544C2207.42 197.197 2212.66 193.987 2218.36 192.775C2229.17 190.476 2238.87 194.617 2247.27 200.804C2268.55 216.476 2278.34 237.51 2275.9 263.335C2274.39 279.316 2264.93 290.468 2250.27 297.325C2235.58 304.191 2220.65 310.562 2205.86 317.234C2202.42 318.785 2200.35 317.612 2198.4 314.79C2191.92 305.393 2184.21 297.257 2173.25 292.612C2152.76 283.923 2129.16 288.791 2111.07 305.345C2095.17 319.901 2087.68 338.472 2084.21 358.808C2080.12 382.77 2082.67 406.171 2092.17 428.708C2096.77 439.608 2103.45 449.296 2112.68 457.025C2134.1 474.956 2160.7 475.683 2184.94 459.343C2195.11 452.486 2202.62 443.245 2209.73 433.634C2214.29 427.467 2214.28 427.534 2221.53 430.036C2236.5 435.205 2250.68 441.848 2263.83 450.586C2275.96 458.644 2281.85 469.709 2282.05 483.771C2282.3 501.566 2276.11 517.49 2265.73 531.764C2247.18 557.289 2222.33 575.442 2192.68 587.08C2137.64 608.686 2082.97 607.357 2029.7 581.649C1993.34 564.106 1967.17 535.973 1947.48 502.002C1928.22 468.778 1918.28 432.781 1915.08 394.96C1914.03 382.576 1913.67 370.134 1913 357.721L1913.02 357.702Z" fill="var(--fill-0, #F57F28)"/>
<path id="Vector_8" d="M2457.56 562.612C2457.56 568.916 2457.57 575.219 2457.56 581.523C2457.52 597.446 2448.58 607.629 2434.28 613.428C2375.56 637.245 2308.89 599.9 2300.6 538.785C2299.52 530.795 2300.18 523.007 2303.3 515.443C2311.86 494.71 2311.3 474.209 2302.01 453.737C2300.49 450.382 2300.13 446.173 2300.42 442.449C2306.39 366.711 2312.66 291.002 2318.6 215.263C2322.05 171.275 2325.02 127.248 2328.21 83.2402C2328.35 81.3104 2328.48 79.3709 2328.74 77.4508C2330.22 66.4343 2334.34 62.051 2345.76 60.48C2371.85 56.8821 2398.06 54.5644 2424.46 55.156C2428.28 55.2432 2432.12 55.6118 2435.89 56.2227C2447.43 58.0943 2453.95 64.5045 2453.98 75.8895C2454.01 87.6527 2452.88 99.4449 2451.76 111.179C2445.97 171.518 2440.17 231.856 2434.07 292.156C2430.52 327.213 2425.67 362.153 2422.76 397.249C2420.39 425.886 2419.87 454.668 2418.93 483.402C2418.76 488.61 2419.92 494.031 2421.48 499.064C2423.56 505.823 2428.63 509.654 2436.16 510.333C2441.03 510.769 2446.82 509.945 2449.88 514.629C2452.37 518.44 2454.56 522.93 2455.11 527.333C2456.58 539.028 2457.09 550.83 2457.98 562.593C2457.84 562.593 2457.71 562.612 2457.57 562.622L2457.56 562.612Z" fill="var(--fill-0, #F57F28)"/>
<path id="Vector_9" d="M2695.21 557.89C2685.31 572.078 2673.66 582.793 2659.51 590.813C2618.37 614.136 2567.78 614.747 2529.34 587.506C2509.16 573.202 2495.58 554.147 2489.23 530.62C2481.91 503.496 2482.09 476.411 2492.77 450.14C2505.15 419.68 2528.84 399.955 2560.01 389.181C2602.02 374.663 2644.88 372.229 2688.14 384.448C2690.32 385.069 2692.56 385.515 2695.45 386.213C2695.89 371.705 2697.48 357.78 2692.14 344.436C2685.14 326.97 2668.97 317.273 2647.74 317.573C2625.26 317.893 2605.81 325.593 2589.6 340.731C2582.6 347.268 2575.36 353.348 2566.06 356.732C2560.69 358.682 2555.43 358.837 2550.72 355.763C2540.66 349.207 2530.35 342.865 2521.05 335.388C2507.88 324.808 2504.28 309.34 2502.01 293.892C2501.53 290.595 2504.54 286.357 2506.88 283.205C2518.73 267.243 2533.87 254.684 2551.25 244.686C2590.14 222.314 2632.42 215.768 2676.86 219.87C2700.15 222.023 2722.48 227.706 2742.96 238.926C2780.24 259.359 2799.56 291.555 2806.32 331.635C2810.11 354.095 2809.16 376.768 2808.58 399.373C2807.79 429.901 2806.5 460.419 2805.61 490.947C2805.42 497.551 2805.77 504.194 2806.3 510.779C2806.87 517.887 2810.28 523.434 2817.37 526.218C2821.57 527.866 2822.62 530.591 2822.5 534.916C2822.07 550.743 2821.97 566.579 2822.08 582.415C2822.15 592.656 2817.25 599.919 2808.15 604.08C2801.93 606.931 2795.1 609.336 2788.32 610.112C2769.26 612.313 2750.46 611.13 2732.44 603.556C2713.8 595.72 2702.74 581.814 2696.93 563.427C2696.46 561.934 2695.99 560.44 2695.2 557.89H2695.21ZM2659.08 438.551C2644.59 438.9 2630.81 441.393 2618.04 448.094C2603.73 455.609 2596.2 470.204 2598.64 485.4C2600.92 499.607 2612.37 511.012 2627.09 513.756C2651.51 518.304 2681.55 500.916 2687.99 477.652C2690.81 467.44 2691.56 456.676 2693.26 446.173C2693.63 443.875 2692.95 442.498 2690.29 442.207C2679.88 441.043 2669.49 439.783 2659.09 438.551H2659.08Z" fill="var(--fill-0, #F57F28)"/>
</g>
</g>
</svg>
