<svg preserveAspectRatio="xMidYMid meet" width="100%" height="100%" overflow="visible" style="display: block;" viewBox="0 0 1006.05 959.261" fill="none" xmlns="http://www.w3.org/2000/svg">
<g id="Group 8">
<g id="Group 3">
<path id="Line 1" d="M576.182 198.229C576.182 198.229 652.868 279.533 675.846 341.615C698.823 403.697 698.145 500.097 698.145 500.097" stroke="var(--stroke-0, #F57F28)" stroke-width="32.3379" stroke-linecap="round"/>
<path id="Line 2" d="M989.875 279.633C989.875 279.633 885.309 319.092 837.442 364.818C789.575 410.545 747.926 497.485 747.926 497.485" stroke="var(--stroke-0, #F57F28)" stroke-width="32.3379" stroke-linecap="round"/>
<path id="Exclude" d="M732.961 379.352C859.013 399.317 930.134 611.636 906.56 760.472C882.987 909.308 773.646 938.3 647.595 918.336C521.543 898.371 426.514 837.01 450.087 688.174C473.661 539.338 606.91 359.388 732.961 379.352ZM631.517 695.102L715.867 713.031L720.147 692.893L635.798 674.964L631.517 695.102ZM562.513 587.761L563.975 588.784L612.012 622.411L554.451 633.592L552.699 633.933L548.013 655.976L552.032 655.17L639.229 637.668L640.967 637.32L644.528 620.569L643.081 619.543L570.541 568.088L567.198 565.718L562.513 587.761Z" fill="var(--fill-0, #F57F28)"/>
</g>
<path id="Vector" d="M86.556 256.824C47.1727 328.061 27.493 405.206 20.5597 486.089L20.527 486.118C20.5254 506.059 20.0398 526.022 20.6309 545.948C22.4255 606.801 34.8418 665.282 61.9665 720.078C89.6964 776.106 127.981 823.308 182.982 854.373C263.561 899.897 348.362 906.475 435.663 876.34C482.692 860.109 522.813 833.048 553.768 793.665C571.088 771.64 582.04 746.633 583.146 718.103C584.016 695.559 575.796 677.352 557.633 663.454C537.942 648.385 516.476 636.588 493.659 627.089L493.359 626.964C482.608 622.489 482.56 622.469 475.029 631.892C463.179 646.71 450.738 660.905 434.367 671.062C395.346 695.268 354.092 691.937 322.329 661.467C308.642 648.333 299.08 632.268 292.85 614.43C279.987 577.55 277.992 539.853 286.356 501.795C293.453 469.497 306.646 440.354 332.564 418.328C362.051 393.279 395.027 389.84 430.21 402.989L430.33 403.034C465.511 416.184 517.823 435.736 549.44 416.81C581.093 397.862 588.415 389.921 592.102 364.44C598.06 323.265 584.62 288.769 552.885 261.93C540.357 251.334 525.639 243.91 508.656 246.712C499.701 248.19 491.293 252.906 482.647 256.223C470.424 260.911 458.534 266.987 445.903 269.97C433.444 272.916 422.66 263.533 420.403 250.733C417.043 231.629 428.653 210.706 446.662 203.471C451.944 201.349 457.31 199.402 462.579 197.232C472.757 193.019 476.143 185.76 472.738 175.455C466.124 155.448 468.273 147.428 483.991 133.685C486.522 131.465 489.185 129.392 491.744 127.205C508.262 113.068 525.624 99.7696 541.048 84.5157C556.947 68.8038 553.037 47.7226 533.915 36.0643C518.839 26.8614 502.026 24.0329 484.855 23.0083C404.925 18.2741 330.695 38.2202 261.357 76.8684C185.248 119.29 128.416 181.122 86.556 256.824Z" fill="var(--fill-0, #F57F28)"/>
</g>
</svg>
